<svg xmlns="http://www.w3.org/2000/svg" viewBox="0 0 523.14 749.5"><defs><style>.cls-1{fill:#ddd;}</style></defs><g id="Layer_2" data-name="Layer 2"><g id="Layer_1-2" data-name="Layer 1"><path class="cls-1" d="M439.44,427.42c-6.1-11.45-6.68-22.4-.91-34.78a20.3,20.3,0,0,0-3.17-21.41c-9-10.89-18.56-21.74-20.71-36.53-1-6.93-.64-14.12-2.17-20.9-1.73-7.71-6.38-9.77-14-8-8.22,2-16.4,4.68-24.74,5.37-6,.49-12.13-2-18.25-2.81-11.38-1.5-15.6-6.29-15.78-17.81a74.51,74.51,0,0,0-1.34-11.5c-3.64-20.91-17.26-34.32-34.36-44.81-6.71-4.11-14.05-7.17-21.82-11.07l8.35-10.87C297.25,221,304.7,216.81,312,215c2.78-.68,5.63-1.54,8.45-1.52,15.48.06,26.73-16.82,18.47-29.59a79,79,0,0,1-10.83-26.88c-2.85-13.05-8.25-25.66-4.27-39.54,1.19-4.15.45-8.3-5.63-9.05-1.89-.23-3.49-2.78-5.22-4.27,11.54,7.13,27.74,4.45,37.28,17.36-2.7,0-5.09-.59-5.52.09-4.3,6.68-9,5.54-14.75.86.56,4.37.68,9.35,3.22,11.53,6.37,5.46,17.61,1.13,20.53-6.83,3.1-8.41,1.42-16.76-1.64-24.29-2.23-5.48-4.31-9.92-1-14.18,11.58-3.33,23.51-7,22,12.16,7.85-6.88,6.35-15-3.81-24.43l-7.87,4.4-1.81-2c16.43-4.44,17.61-18.72,22.55-34C373,50.11,365.8,55,358,58.18c-3.86,1.58-9.45,1.32-13.39-.27-4.73-1.9-8.74-5.54-14.11-2.53-3.71,2.07-7.21,4.52-10.55,6.63,10.65-22.7,9.92-47.23-1.72-51.74,3,12.17-4.82,26.46-20.1,35.25-3.45-11.59-4.71-16.36-20.58-17.15-6-.3-12.47-1.53-15.2-7.54-1.49-3.27-.77-7.88,0-11.68.25-1.26,4.95-3.13,5.61-2.52a19.63,19.63,0,0,1,5.2,7.9c.51,1.49-1.22,3.76-2,5.81,8.88,0,12.65-5.77,8.74-13.09C278.4,4.47,275.61,2.4,273.42,0H259.2C255,4.5,250,8.51,246.76,13.64c-2.95,4.7-3.95,10.62-5.67,15.59-5.65,1.36-12.73,3-19.75,4.77-6.85,1.77-13.23,1.48-17.17-5.2-1.1-1.87-.76-5.52.39-7.52.9-1.57,4.45-3,6.11-2.39,2,.69,3.23,3.56,5.15,5.93,4.86-4,2.6-9-.92-12.7-7.12-7.56-19.1-7.12-24.8.26-8.57-7.09-12.28-6.21-18.59,2.82-1.52,2.17-6,2.27-10.39,3.74,1.45,1.16,4,4.74,5.89,4.38,3.63-.69,6.84-3.57,11.62-6.37.49,1,3.31,4,2.82,6.23C179,34.52,185.2,41.24,192.94,47.46c.77.62,1.58,1.19,2.55,1.92-12.94,5.32-15.77,3.87-18.52-9.09-1.84-8.69-8.19-11.37-16.92-7.34-2.06.95-5.23.54-6.48,2-2.1,2.43-4.39,6-4.11,8.79.24,2.3,4.12,4.23,6.38,6.33l3.61-11,4,.36c.84,5.73,1.19,11.58,2.65,17.15,1.2,4.6,2.95,9.47,5.84,13.12,3.72,4.67,2.86,8.39-.26,12.2-5,6.09-11.75,6.42-18.51,4-7.12-2.53-8.54-8.45-7.63-14.65,3.36,1.4,6.87,4.09,10.16,3.83,2.43-.2,6-4,6.43-6.6.49-3-1.27-7-3.27-9.66-3-3.92-17.63-5-21.73-2.34-6.12,4-7.52,9.77-4.84,19-4.09.66-8.22,1.31-12.34,2-.49.08-1.22.35-1.36.71-3.22,8.06-7.2,16-9.08,24.32-.66,2.93,3.25,7.67,6.16,10.44,3.89,3.71,8.31,2.82,12.55-2.29-2.62.67-4.54,1.83-5.83,1.34-2.5-1-5.57-2.39-6.6-4.51-.74-1.51.9-5.91,2.44-6.5,5.32-2,11.2-4.46,16.63-4,9.66.82,19.15,3.65,28.36,5.57-9.94,1.1-23.65-3.3-26.91,10.29-4.73,2.77-9.09,3.91-11.05,6.73-9.17,13.18-5.87,26.56,1.17,39.37,2.13,3.89,2.3,7.1,1.37,11.31a57,57,0,0,0-1.12,16.22c.4,5.36,2.26,9.91.47,16.09-1.64,5.69,1.63,13.72,4.8,19.6,2.83,5.24,6.4,10,6.86,16.06.63,8.44,6.1,12.7,12.78,16.29a68.28,68.28,0,0,1,10.49,6.5c11.63,9.33,11.65,21,.28,31-8.84,7.83-16,8.67-24.31,2.82-1.34,12.22,4.24,17.72,16.8,15.42-4.82,10.5,0,18.69,5.74,26.51a23.71,23.71,0,0,0,16.76,9.84c-4.68,1.56-8.55,7.4-13.11,12.77-5.71,6.72-12.75,12.36-19.46,18.17-16.47,14.26-23.69,33.42-29.52,53.58-4.19,14.48-7.79,29.47-14.56,42.75a34.83,34.83,0,0,1-33.45,18.89c-15.68-.92-26.35-11.23-32.15-25.77C24.76,441.13,31,418,48.07,397,66.38,374.5,85.25,352.4,103,329.42c21.63-28,24.35-59.11,11.79-91.75-3-7.68-5.86-15.8-10.81-22.14-3.13-4-4-8.06-5.85-12.23-2.41-5.56-6.29-10.47-9.4-15.75-2.55-4.33-4.9-8.78-6.28-11.27,8.72-15.11,18-22,29.09-3.6l1.42-1.5c-3-7.85-4.83-16.39-9.18-23.38-4.14-6.66-12.49-3.92-19.06-3.76-8.8.22-19,12.58-14.25,35.78-11.67-3.7-15.63-16.16-8.22-27.51a122.67,122.67,0,0,1,13.61-17c9.37-9.89,8.26-22.06-3.8-31.13l-1.12,3.4c-1.59-6.62-2.2-15-5.67-22-3.37-6.73-14.19-7.3-22.07-2.69,4.46.85,8.93.83,12.47,2.64S61.5,91,64,93.4c-10.16,1.08-19,2.35-28,2.82-3.89.21-9.24,0-11.42-2.3-2-2.18-2.19-8.25-.59-11.2,2.52-4.66,7.62-6.49,13.19-3.77.36.18,1-.2,1.5-.33-5.44-7.69-9.6-9.15-16.65-5.87C14.26,76.38,9.41,85.29,11.3,92.26c1.14,4.22,2.09,8.5,3.15,12.74,1.46,5.9,10,11.79,17.5,12,3.95.11,7.92-.17,11.84.15,1.91.16,3.73,1.29,6.62,2.37-13.17,6.63-21.64,15.9-23.73,30.66-2,14.13-.31,26.17,13.22,34.32-4,3.16-7.8,5.7-10.95,8.91-2.3,2.33-4.67,5.35-5.26,8.39-.77,4-1.25,9.2.66,12.35,5.16,8.52,4.82,22.38,20.49,21.67,7.46-.33,15,1.61,22.77,2.56,2.16,8.71-4.26,12.43-11.19,16,10.73,3.67,19.49-1.49,21-11.66a37.69,37.69,0,0,1,.7-3.79c3-12.09-4.19-21.66-16.63-22.43-3.12-.2-7.48-.69-8.91-2.71-2.09-3-4-9.59-2.54-10.82,3.34-2.95,8.93-5.53,13.13-4.92,18.06,2.62,22.12,5.32,32,21.58C101.5,230,106.37,241.15,111.73,252c.64,1.29.34,3,.53,5.13-6.73-4-13-7.71-19.24-11.39a6.9,6.9,0,0,0-2.24-.63c-5.3-1-11,4-11.11,12,0,2.81,4.74,6.65,8.14,8.25,3,1.39,7.11.29,10.73.29l.12,2.05-19.78,3.14c-1.22,4,2.75,4.46,7.44,4.3,11.42-.38,11.8-.09,16.45,13-8.5-8-17.63-10.88-28.15-9.9-4.56.42-9.38-.44-9.64-6.41-.11-2.47,1.6-5,2.48-7.56l8,5.18c-.65-2.71-1.17-7.6-1.92-7.64-5.8-.28-12.28-1-17.3,1.15-5.5,2.41-4.3,11.51,2,22-10.85,2.56-21.39,6-32.16,7.13-4.09.45-9.14-3.73-12.89-6.83-1.37-1.14-1.39-6.51,0-7.83a27,27,0,0,1,11.37-6.29c1.19-.31,3.68,4.28,6.81,8.16.68-3.56,2.36-6.83,1.4-8.77-1.33-2.66-4.83-6.27-7.12-6.08-9.51.79-20.18-.06-25.69,10.7v30.05c10.82,8.64,18.81,10.17,36.7,7.05,2.93,10.22,13.21,14.3,25.67,10.64,5.67-1.66,11.53-4.79,17.42-.3,5.58,4.26,5.59,15.38-.61,22.61-11.69,13.65-23.39,27.32-35.67,40.44-17.27,18.43-26.85,40-25.91,65.17s23.25,56.72,54.08,58.06c20.4.89,35.45-10.05,47.1-26.65,5.19-7.39,7.18-14.61,5.71-23.21a5.63,5.63,0,0,1,1.21-3.79c2.29,30.8,11.73,59,29.73,84.35l-1.75,1.06-3.94-3.67c-3.66,20.33-16.25,35.31-28.21,50.63-5.85,7.49-12.43,14.52-17.35,22.58-1.78,2.91-1.28,9.58.94,12.16,7.73,9,5.36,19,4.85,29-.37,7.29-1.49,14.83-.09,21.82,1.14,5.7-1.42,6.73-5.57,9,0-3.31,0-5.94,0-8.57.09-14.13-9.68-21.3-23.12-16.86A67.21,67.21,0,0,0,66,663.44c3.18-.79,6.32-1.82,9.53-2.31,5.44-.83,11.13-3,15.88,2s4,10.31,1.82,14.44c-9-1.34-17.65-3.23-26.43-3.75-6.58-.39-11.85,5.73-13,13.12-.85,5.33.72,9.75,6.22,10.93,3.37.72,7.14-.42,10.74-.72l-.19-2.63c-1.54-.16-3.42.19-4.56-.58-2.19-1.49-5.59-3.66-5.51-5.43.1-2.41,2.54-5.37,4.79-6.87,2.07-1.37,5.91-2.39,7.79-1.38,11.7,6.26,13.59,12.36,7.55,24.48-3.36,6.72.62,10.5,4.86,13.85,7.35,5.8,23.79,5.1,31.82-.08,4.65-3,10.06-4.83,15.35-7.28-.46,5-.92,8.25-1,11.53-.16,4.28,0,8.57,0,12.86l-2.08.07c-.87-6.34-1.75-12.68-2.77-20.12-8,11.3-3.48,24,9.64,30.87l5.88,3.08h20.55l3.26-5-8.47-9.1c8.7-.18,16.14,0,19.26-7.85-12.35-10.59-25.92-18.94-27.45-37.49-.62-7.5-5.32-14.86-9-21.85-5.9-11.26-9.44-22.5-6.31-35.5,5.49-22.83,3.29-21.54,11.58-26.54-1.14,2.4-2.69,4.19-2.72,6-.08,4.55-.71,12.4,1.08,13.08,7.38,2.78,5.55,9.34,6.36,13.75,2,10.69,15,17.79,24.24,12.15,5.24-3.2,5.05-8.48,3.43-12.48-1.32-3.25-3.19-8.93-8.92-7.55.37,1.65,1.29,3.4.78,4.07a4.19,4.19,0,0,1-3.73,1.23c-5.6-1.93-7.13-6.46-6.43-11.83,1-7.71,7.54-8.71,13.53-10.56,1.45,7.22,6.07,11.61,12.87,14.21,8.17,3.11,18.44.79,21.51-5,2.12-4,5.73-7.62,6.49-11.81,1.09-5.94,1.87-13-.34-18.22-2.36-5.62-8.78-4.09-14-1.38,6.35-1.27,10.19,1.2,10.21,7.44,0,6.06-3.7,9.05-9.81,7.81-4.12-.84-8.1-2.34-11.36-3.31C186,593.22,190,586.06,197,580.08c4.42-3.76,9.56-6.92,13.17-11.34,15.28-18.75,18.7-40.37,14.4-63.72-.46-2.46.62-5.19,1-7.8l1.5.35c.25,3.47.49,6.94.74,10.41l3,0c0-13.87.79-27.8-.18-41.61-1.63-23.1-4.46-46.11-6.55-69.18-.18-2,1.32-4.2,2-6.3l3,.2c.55,4.51,1.09,9,1.63,13.45l3.33-.63c-1,2.53-1.87,4.54-3,7.3l4.67-1.08c-2.35,5.1-4.52,9.82-7.64,16.57l5.27-3.31c.38,1.41.75,2.81,1.11,4.18l2.56-2.15-.07.11.19-.06c-.57,4.59-1.14,9.18-1.75,14.05l6.62.37-8.48,7.41c1.17,5.67,2.59,12.53,4,19.38,6.63,2.84,14.72,5.91,22.43,9.73,8.64,4.26,17.4,6.9,27.15,6.07,1.75-.14,3.65,1.39,6.49,2.57a23.38,23.38,0,0,1-4.19.39c-7.31-1-11.62,1.71-12,9.4-.35,8.1-2.33,16.65-.44,24.21,3.09,12.32-.91,21.82-7.48,31.21-5.33,7.61-11,15-16.14,22.73-4.51,6.79-4.38,16.5-.28,21,3.8,4.17,13.33,5.12,18.94,2.15,6.76-3.58,13.4-7.58,20.53-10.22,8.79-3.25,18-5.28,28.23-8.16-3.07,5.18-5.84,8.71-7.39,12.72-2.91,7.54-8.54,11.34-15.8,13.64-7.52,2.38-10.24.29-9.63-7.62-6.28,4.13-7.59,8.59-4.47,15.2,2.42,5.11,10.11,7.28,17.83,6.15,3.63,2.27,7.59,4.89,11.48,4.79,5-.11,9.45-2.9,9.55-9.12.07-4.67,0-9.34,0-14,9.8,17.2,20,23,31.73,16-3-.19-5.53.27-7.43-.59-4.7-2.13-11.11-2.61-11.62-9.74-.52-7.34,3.12-12.2,10.07-13.63,6-1.25,12.38-1,18.52-1.83,5.27-.73,10.45-2.1,15.67-3.19,4.22-4.68,7.3-9.69,6.51-16.54-.15-1.27,2.22-3.19,3.8-4.24,5-3.37,5.75-9.87.64-13-10.73-6.48-22.34-10.62-34.56-4.84-18.43,8.7-37.46,13.26-57.93,12-4.35-.28-8.82,1.31-13.12,2,1-9.67,10.58-18.19,22.33-27.09,7.89-6,15.11-12.82,23.36-19.9a22.19,22.19,0,0,0,21-5.66c6.56-6.43,4.85-14.28,2.07-22.26,12.64,8.88,25.91,8.8,38.26.05,6.33-4.48,8.91-16.46,5-22.12-1.44-2.08-2-4.77-3.24-7-2.54-4.4-4.37-10.17-8.24-12.6-5.29-3.33-11.06-.5-14.22,2.82,2.74,3.17,6.41,5.52,6.74,8.28.36,3-1.57,7.2-3.86,9.55-4.67,4.79-11.36,1.46-13.32-8.07-3.26-15.89-14-26.43-26.23-33.82-20.62-12.45-42.82-22.3-64.54-32.84-2.33-1.13-5.95.4-9,.7-.72-2.48-1.44-5-2.59-9,11.22-4.51,22.3-10,34-13.41,15.11-4.46,26.09-12.6,30.4-26.62,7.39-1.72,13.71-2.93,19.87-4.67,9.87-2.78,19.53-6.48,29.51-8.69,5.71-1.26,13.63-2.79,17.54,0,14.53,10.41,19.13,25.6,16.06,42.31-6.3-.66-12.14-1.87-17.93-1.64-2.82.11-6.07,2.41-8.14,4.63-2.68,2.88-4.05,7-6.64,10-1.27,1.47-4,1.76-6.14,2.3-.34.08-1.07-1.38-1.62-2.13,1.83-1,3.69-1.87,5.47-2.9.33-.19.37-.85,1.38-3.41-4.41.49-8.87-.32-10.81,1.53-2.4,2.28-4.76,8.52-3.53,10,3.61,4.24,9,7,15.63,11.61,1.54,4.57,11.49,9.83,18.9,7.75,6.21-1.74,7.85-6.07,4.38-11.79-.29-.49-1.34-.53-2.19-.83-.64,2.24-1.22,4.29-1.81,6.33l-2,.42c-.74-1.87-2.62-4.41-2-5.48,1.42-2.41,4-5.62,6.25-5.76,5.36-.34,10.82.92,17.14,1.63-9.38,5-12.16,13.79-8.51,24.29,3.48,10,12.46,17,20.3,15.34l-1.23-7.12,18.13,4.83A33.06,33.06,0,0,0,439.44,427.42ZM269.93,209.8c-1.62-.82-1.89-4.24-2.84-6.48-1-2.4-1.67-6.33-3.28-6.78-2.83-.81-6.26.53-9.28,1.86,3.86,1.86,3.93,2,7.42,15.63-22-7.12-30-43.26-17.18-57.1-9.28-4.17-11.42-12.24-12-21.17,5.8,17.46,19.64,25.94,35.65,31.67,15.1,5.41,20.84,15.4,15.78,30.08A32.63,32.63,0,0,1,277,208.65C275.61,210.1,271.71,210.71,269.93,209.8Z"/><path class="cls-1" d="M523.14,232.44c-4-1-8-1.85-11.9-3a25.36,25.36,0,0,1-15.75-11.58c-4.31-6.68-10.81-13.68-21.58-12.56-9.93,1-20.33,1.64-30-.2-9.12-1.74-18.77-3.45-25.87-11.85-9.73-11.51-31-9.35-38.24,3.76-5.34,9.66-13.29,14.25-22.91,18.33-14.45,6.13-25.24,17.47-35.1,26.67l22.91,37,49.43-61.55-8.51-2c16.72-.91,31.48-3.21,45.75,4.19,8.59,4.46,18.19,7,27.25,10.34L450,231.7c5.47,7.85.08,12.25-4.83,16.11-5.67,4.45-12.49,5.42-18.83,1.61-2.15-1.28-3.54-4.84-3.92-7.56-.17-1.15,3.82-4.33,4.75-3.92,2.44,1.07,4.22,3.61,6.4,5.7,2-3.34,2.25-7.24-3.13-8.13-3.55-.6-8.32-.1-11,2-2.12,1.66-2.23,6.34-2.55,9.74-.21,2.36,1.37,4.92,1.06,7.24-1,7.29,1.48,12.35,8.88,13.53,4.84.77,9.9.14,15.85.14,4.57,7.79,10.11,10.56,16.64,7.15,11-5.75,14.68-11.82,11.14-18.48-1.33,1.54-2.4,3.85-4.06,4.4a9.8,9.8,0,0,1-7-.29c-1.86-1-4.37-4.05-4-5.44,1.87-6.5,4.7-12.79,12-15.09,5.56-1.75,11.24-3.12,17.12-4.73-.53,2.15-.94,3.84-1.38,5.63l-4-1.82c-.3,12.2,5.24,18.11,18.24,19.85,11,1.49,20.32-2.67,22.35-10l-7.52-3.56,10.9-8.54Z"/><path class="cls-1" d="M379.73,587c-.12-.15-.23-.3-.35-.44l-.15.16.15-.16h0l-.19.21Z"/><path class="cls-1" d="M385,593c16.76,9.55,32.61,6,46.14-10.1,1.31-1.55,1.71-3.86,2.54-5.82a28.4,28.4,0,0,1-5.39-.17,15.07,15.07,0,0,1-3.62-1.46l6-9.25-34.52-8-2,1.61c2.05,3,4.09,6.09,6.16,9.17a10.17,10.17,0,0,1-2.8,0c-7.73-2.12-9.47-.31-10.47,7.19-.93,7,4.89,6.54,8,8.67,4.5,3.08,9.68,5.17,14.56,7.69l-1.21,3.18c-5.68-1.52-11.41-2.91-17-4.6-3.94-1.19-7.76-2.75-11.62-4.17C381.4,589.1,382.78,591.77,385,593Z"/><path class="cls-1" d="M380,64.51c12.82.68,23.11-7.08,26.29-19.21a6.7,6.7,0,0,1,.24-.76c.1-.25.21-.5.32-.75l0,0c.67-1.39,1.66-2.7,2.45-4.07h0l.08-.06c-.55,3.38-1.12,6.77-1.68,10.19,10.73,1.23,22.81-7.43,28.33-19.72.1,7.18,4.06,4.8,7.76,3.16,11.71-5.21,21-14.67,33.6-18.54,3.91-1.2,7.14-4.61,10.68-7-10.3,1.74-19,6.52-29,8.51-7.47,1.49-14.17,6.83-21.22,10.46-2.29-.1-5.07-1.1-6.78-.16-7.4,4.07-14.49,8.68-21.68,13.1l0-.14h0a2.85,2.85,0,0,0-.23.26,36.52,36.52,0,0,0-3.07-3,.52.52,0,0,0-.44-.09C399,39.8,391.6,42.28,386,46.89,381.17,50.9,377.75,57.21,380,64.51Z"/></g></g></svg>