<svg xmlns="http://www.w3.org/2000/svg" viewBox="0 0 215.98 55.27"><g id="Layer_2" data-name="Layer 2"><g id="Layer_1-2" data-name="Layer 1"><path d="M28.6,38.1v5.63H0c2.34-1.32,2.78-1.83,3.83-4.81C5.24,35,6.61,31.12,8,27.21s2.79-7.79,4.16-11.71c.85-2.41.48-3.41-.93-4.54H20c-2.06,1.09-2.42,1.63-3.55,4.54-1.62,4.5-3.23,9-4.84,13.53S8.47,37.76,6.94,42.1H23.56C26.62,42.1,27.87,39.93,28.6,38.1Zm7.94,1.09L32.43,27.63A6.25,6.25,0,0,1,30,29.69a23.11,23.11,0,0,1-2.86,1.16c-1.62.59-4,1.32-5.09,2.68a5.47,5.47,0,0,0-.4.7l-.28.77c-1,2.83-.73,3.42,1.37,4.54H15.89c1.86-.85,2.91-2.25,3.87-5C21.42,30,23,25.39,24.64,20.81c.85-2.4,1.7-4.81,2.54-7.21,0,0,0,0,0-.08A6.43,6.43,0,0,0,24.36,11c1.5,0,2.3,0,3.75,0a3.67,3.67,0,0,1,1.82.27,2.88,2.88,0,0,1,1.13,1.32,17.47,17.47,0,0,1,1,2.64c1.45,4,2.9,8,4.31,12.06s2.91,8.06,4.32,12.06C41.71,42,42,42.41,44.41,43.73H35.62C37.55,42.72,37.43,41.63,36.54,39.19ZM31.22,24.26l-.12-.43c-1-2.67-1.94-5.35-2.91-8.06v-.08c-.68,1.82-1.33,3.65-2,5.51l-3.39,9.61a6.14,6.14,0,0,1,.93-.46c1-.43,2-.78,3.1-1.16,1.41-.55,3.63-1.36,4.36-2.76A2.73,2.73,0,0,0,31.22,24.26Z"/><path d="M107.67,48.77c-1.94,3.21-5.53,5-9.16,5.89-9,2.1-17.58-1.43-23.75-7.75a99.8,99.8,0,0,1-8.19-9.78C64,33.64,61.65,30,59.39,26.39Q56.9,22.27,54.67,18V39.19c.08,2.64,1.33,3.92,3.15,4.54h-8C51.72,43.07,53,41.79,53,39V14.61L51.32,11h4.15l.13.27c.64,1.4,1.33,2.75,2,4.11,1,1.9,2,3.76,3,5.62a158.56,158.56,0,0,0,8.59,13.5,73.72,73.72,0,0,0,7.14,8.8c1.17-.74,1.89-1.86,1.89-4.23V15.85L70.72,35l-1.13-1.59L78.47,11h.28c1.65,0,3.26,0,4.88,0H85l-1.17.78a3.93,3.93,0,0,0-1.53,3.49V39.38c.08,2.64,1,3.49,2.7,4.35H76.81a34.19,34.19,0,0,0,11.22,8A18.24,18.24,0,0,0,98.39,53a8.12,8.12,0,0,0,6.25-5,7.1,7.1,0,0,0-.92-6.63c-2.79-3.8-9.85-3.64-11.1,1.16-.08.55-.6.51-.44-.11,1.09-5.28,7.7-7.14,12.22-5A7.72,7.72,0,0,1,108,40.94,8.09,8.09,0,0,1,107.67,48.77Z"/><path d="M102.8,30.66c.41,0,.45.35.09.39h0a7.66,7.66,0,0,0-4.44,2.4A11.63,11.63,0,0,0,96,37c-.69,1.39-1.29,2.87-2,4.26a18.72,18.72,0,0,1-1.49,2.64C90.3,47.22,87.15,48.69,83,49c-.44.08-.48-.31-.12-.39a7.33,7.33,0,0,0,4.15-2c1.13-1.09,1.9-3.07,2.54-4.46.77-1.63,1.38-3.3,2.22-4.89a11.67,11.67,0,0,1,7.51-6.28,5.24,5.24,0,0,1-3.19-2.33c-1.41-2.36-.4-6.05.28-8.53.44-1.66,1-3.37,1.29-5.08.33-1.94.33-2.83-.89-4.11a15.78,15.78,0,0,1,4.24,0c1.94.51,2.78,2.48,3.31,4.11,1.41,4,2.86,8.07,4.31,12.1s2.87,8.1,4.32,12.1a6.57,6.57,0,0,0,4.4,4.46H108c1.45-.93,1.77-2.1.93-4.54-1.42-3.92-2.79-7.83-4.2-11.71s-2.66-7.48-4-11.21a18.67,18.67,0,0,1-.73,4.31c-.36,1.55-.85,3.1-1.09,4.65a5.38,5.38,0,0,0,.32,3.45A4.83,4.83,0,0,0,102.8,30.66Z"/><path d="M168.24,47.41c-5.45,1.16-10.65,1.16-15.69-1.24C140.93,40.66,134.08,26,125.73,16.43V39.19a4.29,4.29,0,0,0,3.1,4.5h-7.94c1.85-.62,3.14-1.94,3.14-4.66V14.57a31,31,0,0,0-5.56-5.28,16.91,16.91,0,0,0-12.39-3.1c-.32,0-.36-.31-.12-.35,8.27-1.39,14.24,0,20.29,5.43,7.91,7.1,12.59,16.91,19.32,25V15.57c0-2.75-1.29-4-3.14-4.69h7.94a4.39,4.39,0,0,0-3.14,4.5v22.8a28.16,28.16,0,0,0,10,7.45,19.16,19.16,0,0,0,11,1.47C168.44,47.06,168.48,47.37,168.24,47.41Z"/><path d="M166.44,43.69H157c1.61-.78,2.7-1.86,2.7-4.66V21.31c0-2.79-1.09-3.87-2.7-4.65h9.44c-1.7.85-2.62,1.71-2.71,4.3V39.38C163.82,42,164.74,42.83,166.44,43.69Zm-7.83-32.84a3.63,3.63,0,0,0,2.54-2.68.58.58,0,0,1,1.09,0c.41,1.2,1.09,2.44,2.5,2.68a.57.57,0,0,1,.09,1.08,3.58,3.58,0,0,0-2.55,2.68.63.63,0,0,1-1.17,0,3.88,3.88,0,0,0-2.58-2.68A.6.6,0,0,1,158.61,10.85Z"/><path d="M213,1.34c-4.76,5.08-10.37,8.38-17.51,8.88-5.72.39-11.53-.93-17-2.44v31.6c.08,2.6,1,3.45,2.71,4.31h-9.44c1.61-.78,2.7-1.86,2.7-4.66V6.66c-12-3.45-24.16-7.29-34,2.71-.33.27-.61-.12-.4-.31,5.24-5.47,11.37-8.72,19.15-9C164.91-.21,170.6,1.11,176,2.62c4.28,1.17,8.47,2.52,12.79,3.45a32.46,32.46,0,0,0,11.94.74c4.56-.74,8.79-2.44,11.94-5.66C213.11.68,213.31.92,213,1.34Z"/><path d="M199,33.14c-3.71.7-6.7,1.36-8.07,5.23l-.28.78c-1,2.83.81,3.88,2.7,4.54h-8.79c1.77-.58,3.39-1.82,4.56-5,1.61-4.62,3.22-9.19,4.88-13.81,1.33-3.8,2.7-7.64,4-11.44a5.72,5.72,0,0,0-3.47-2.63c1.46,0,2.91,0,4.4-.08a3.66,3.66,0,0,1,1.81.31,2.58,2.58,0,0,1,1.13,1.32,15.32,15.32,0,0,1,1,2.63c1.45,4,2.87,8.07,4.32,12.14s2.9,8.07,4.31,12.1c1,2.48,2.1,3.68,4.44,4.46H206.5c1.53-1.09,1.82-2.1.93-4.54l-3-8.49C203.23,32.21,200.85,32.79,199,33.14Zm-6.29.23a17.31,17.31,0,0,1,6-1.82l.56-.11c1.21-.28,2.95-.7,3.71-1.71a2.64,2.64,0,0,0,.32-2.29l0,0c-1.37-3.95-2.78-7.91-4.19-11.86-1.17,3.25-2.3,6.47-3.47,9.73Z"/></g></g></svg>