<svg xmlns="http://www.w3.org/2000/svg" viewBox="0 0 342.68 87.69"><defs><style>.cls-1{fill:#fff;}.cls-2{fill:#323233;}</style></defs><g id="Layer_2" data-name="Layer 2"><g id="Layer_1-2" data-name="Layer 1"><path class="cls-1" d="M45.37,60.46v8.92H0c3.71-2.09,4.42-2.89,6.08-7.63,2.24-6.22,4.42-12.37,6.59-18.58s4.42-12.37,6.59-18.58c1.35-3.82.77-5.41-1.47-7.2H31.68c-3.26,1.72-3.84,2.59-5.63,7.2-2.56,7.14-5.12,14.33-7.68,21.47C15.93,53,13.44,59.9,11,66.79H37.37C42.24,66.79,44.22,63.35,45.37,60.46ZM58,62.18,51.45,43.84a9.91,9.91,0,0,1-3.9,3.27A36.21,36.21,0,0,1,43,49c-2.56.93-6.34,2.09-8.07,4.25a11.53,11.53,0,0,0-.64,1.1l-.45,1.23C32.26,60,32.7,61,36,62.73H25.22c2.94-1.35,4.6-3.56,6.14-7.93C34,47.54,36.54,40.28,39.1,33q2-5.73,4-11.44c0-.07-.06-.07-.06-.13a10.23,10.23,0,0,0-4.41-4.06c2.36,0,3.64-.06,5.94-.06a5.84,5.84,0,0,1,2.89.43,4.55,4.55,0,0,1,1.79,2.09A25,25,0,0,1,50.81,24c2.31,6.34,4.61,12.74,6.85,19.14S62.27,56,64.51,62.3c1.66,4.31,2,5,5.95,7.08H56.51C59.58,67.78,59.39,66.06,58,62.18ZM49.53,38.49l-.19-.67c-1.54-4.25-3.07-8.49-4.61-12.8V24.9c-1.08,2.89-2.11,5.78-3.13,8.73L36.22,48.89a11.24,11.24,0,0,1,1.47-.74c1.61-.67,3.27-1.23,4.93-1.84,2.24-.86,5.76-2.16,6.91-4.37A4.27,4.27,0,0,0,49.53,38.49Z"/><path class="cls-2" d="M170.83,77.38c-3.07,5.1-8.77,8-14.52,9.35-14.21,3.32-27.91-2.28-37.7-12.31a160.31,160.31,0,0,1-13-15.5c-4-5.54-7.81-11.26-11.39-17q-3.95-6.56-7.49-13.29V62.18c.13,4.18,2.11,6.21,5,7.2H79.12c2.95-1,5-3.08,5-7.45V23.17l-2.69-5.78H88l.19.43c1,2.22,2.11,4.37,3.26,6.52,1.54,3,3.14,6,4.8,8.92,3.78,6.59,8.39,14.09,13.63,21.41a117.69,117.69,0,0,0,11.33,14c1.86-1.17,3-3,3-6.71V25.14l-12,30.33L110.42,53,124.5,17.39H125c2.62,0,5.18.06,7.74.06h2.24l-1.86,1.23c-2,1.3-2.37,3.45-2.43,5.54V62.49c.13,4.18,1.67,5.53,4.29,6.89H121.88c5.43,5.48,11.32,10,17.79,12.61,5.05,2,11,3.26,16.44,2.09,4.55-1,8.32-3.57,9.92-7.87a11.27,11.27,0,0,0-1.47-10.52c-4.41-6-15.62-5.79-17.6,1.84-.13.86-1,.8-.7-.18C148,59,158.48,56,165.65,59.47A12.26,12.26,0,0,1,171.41,65,12.83,12.83,0,0,1,170.83,77.38Z"/><path class="cls-2" d="M163.11,48.65c.65,0,.71.55.13.61h-.06a12.2,12.2,0,0,0-7,3.82,18.34,18.34,0,0,0-3.78,5.59c-1.09,2.22-2,4.56-3.13,6.77a31.3,31.3,0,0,1-2.37,4.19c-3.58,5.29-8.58,7.62-15.1,8.05-.71.13-.77-.49-.2-.61a11.63,11.63,0,0,0,6.59-3.2c1.8-1.72,3-4.86,4-7.08,1.21-2.58,2.17-5.23,3.52-7.75,2.81-5.23,6.46-8.49,11.9-10a8.38,8.38,0,0,1-5.06-3.68c-2.23-3.76-.64-9.6.45-13.54.71-2.65,1.6-5.35,2.05-8.06.51-3.08.51-4.49-1.41-6.52a24.32,24.32,0,0,1,6.72.06c3.07.8,4.42,3.94,5.25,6.52,2.24,6.4,4.54,12.8,6.85,19.2s4.54,12.86,6.85,19.19c1.6,4.19,3.58,5.85,7,7.08h-15c2.3-1.48,2.81-3.33,1.47-7.2-2.24-6.21-4.42-12.43-6.66-18.58-2.11-6-4.22-11.87-6.33-17.78a29.56,29.56,0,0,1-1.16,6.83c-.57,2.46-1.34,4.92-1.72,7.38-.26,1.72-.45,3.87.51,5.48C158.51,47.35,161,48.4,163.11,48.65Z"/><path class="cls-2" d="M266.94,75.22c-8.64,1.85-16.89,1.85-24.9-2-18.43-8.73-29.31-32-42.56-47.19V62.18c.07,4.18,2.05,6.15,4.94,7.14H191.81c2.94-1,5-3.08,5-7.39V23.11A48.68,48.68,0,0,0,188,14.75a26.71,26.71,0,0,0-19.65-4.92c-.51,0-.58-.5-.19-.56,13.12-2.22,22.59,0,32.19,8.61,12.54,11.26,20,26.83,30.65,39.62V24.71c0-4.36-2-6.39-5-7.44h12.61c-2.88,1-4.87,3-5,7.14V60.58c4.41,4.8,9.6,9.35,15.8,11.81,5.57,2.28,11.52,3.51,17.41,2.34C267.26,74.67,267.32,75.16,266.94,75.22Z"/><path class="cls-2" d="M264.08,69.32h-15c2.56-1.23,4.29-3,4.29-7.39V33.82c0-4.43-1.73-6.15-4.29-7.38h15c-2.69,1.35-4.16,2.7-4.29,6.82V62.49C259.92,66.61,261.39,68,264.08,69.32ZM251.66,17.21a5.75,5.75,0,0,0,4-4.25.92.92,0,0,1,1.73,0c.64,1.91,1.73,3.88,4,4.25a.91.91,0,0,1,.13,1.72,5.66,5.66,0,0,0-4,4.24,1,1,0,0,1-1.85,0c-.45-2.15-2.11-3.38-4.09-4.24A1,1,0,0,1,251.66,17.21Z"/><path class="cls-2" d="M337.94,2.13c-7.55,8.06-16.45,13.29-27.77,14.09-9.09.62-18.31-1.47-27-3.88V62.49c.13,4.12,1.6,5.47,4.29,6.83h-15c2.56-1.23,4.29-3,4.29-7.39V10.56C257.69,5.09,238.42-1,222.87,14.87c-.51.43-1-.19-.64-.49C230.55,5.7,240.28.53,252.63,0c9-.37,18.05,1.72,26.63,4.12C286,6,292.7,8.16,299.54,9.64c6.15,1.35,12.67,2.15,18.95,1.17,7.23-1.17,13.95-3.88,18.94-9C338.13,1.09,338.45,1.46,337.94,2.13Z"/><path class="cls-2" d="M315.74,52.58c-5.88,1.11-10.62,2.16-12.8,8.31l-.44,1.23c-1.54,4.49,1.27,6.15,4.28,7.2H292.83c2.82-.93,5.38-2.89,7.23-7.94,2.56-7.32,5.12-14.58,7.74-21.9,2.12-6,4.3-12.12,6.41-18.15a9.1,9.1,0,0,0-5.51-4.18c2.31,0,4.61-.07,7-.13a5.86,5.86,0,0,1,2.88.49,4.2,4.2,0,0,1,1.79,2.1,26.24,26.24,0,0,1,1.6,4.18c2.3,6.4,4.55,12.8,6.85,19.26s4.61,12.79,6.84,19.19c1.54,3.94,3.33,5.85,7,7.08h-15c2.43-1.72,2.88-3.33,1.47-7.2l-4.8-13.47C322.46,51.11,318.69,52,315.74,52.58Zm-10,.37c2.82-1.72,6.14-2.27,9.47-2.89l.9-.18c1.92-.43,4.67-1.11,5.88-2.71a4.27,4.27,0,0,0,.52-3.63l-.07-.06c-2.17-6.28-4.41-12.55-6.65-18.83-1.86,5.17-3.65,10.28-5.51,15.44Z"/></g></g></svg>